<svg width="120" height="120" fill="none" xmlns="http://www.w3.org/2000/svg"><path d="M0 60C0 26.863 26.863 0 60 0s60 26.863 60 60-26.863 60-60 60S0 93.137 0 60Z" fill="#F1F3F4"/><g clip-path="url(#a)"><path d="M73.822 64.256a2.5 2.5 0 1 1-.001-5 2.5 2.5 0 0 1 0 5Zm-27.616 0a2.5 2.5 0 1 1 0-4.998 2.5 2.5 0 0 1 0 4.998Zm28.512-15.05 4.993-8.648a1.04 1.04 0 0 0-1.8-1.04l-5.055 8.757c-3.867-1.764-8.21-2.747-12.843-2.747-4.633 0-8.975.984-12.841 2.747l-5.056-8.757a1.04 1.04 0 0 0-1.903.25 1.038 1.038 0 0 0 .104.788l4.993 8.65c-8.574 4.663-14.439 13.343-15.296 23.599h60c-.859-10.256-6.723-18.936-15.296-23.6Z" fill="#3DDC84"/></g><defs><clipPath id="a"><path fill="#fff" transform="translate(30 39)" d="M0 0h60v33.805H0z"/></clipPath></defs></svg>