<svg width="120" height="120" fill="none" xmlns="http://www.w3.org/2000/svg"><path d="M0 60C0 26.863 26.863 0 60 0s60 26.863 60 60-26.863 60-60 60S0 93.137 0 60Z" fill="#F1F3F4"/><mask id="a" style="mask-type:alpha" maskUnits="userSpaceOnUse" x="33" y="33" width="54" height="54"><path d="M60 86.667c14.728 0 26.667-11.94 26.667-26.667 0-14.728-11.939-26.667-26.666-26.667-14.728 0-26.667 11.94-26.667 26.667 0 14.728 11.94 26.667 26.667 26.667Z" fill="#C4C4C4"/></mask><g mask="url(#a)"><path d="M33.334 33.333v32.728h16.17L60 47.879h26.666V33.333H33.334Z" fill="#DB4437"/><path d="M33.334 86.667h25.385L70.5 74.885V66.06H49.504l-16.17-27.734v48.34Z" fill="#0F9D58"/><path d="M33.334 86.667h25.385L70.5 74.885V66.06H49.504l-16.17-27.734v48.34Z" fill="url(#b)"/><path d="M60 47.879 70.5 66.06 58.72 86.667h27.948V47.879H60.001Z" fill="#FFCD40"/><path d="M60 47.879 70.5 66.06 58.72 86.667h27.948V47.879H60.001Z" fill="url(#c)"/><path d="m49.792 65.954-12.07-20.7-.175.303 11.982 20.546.263-.149Z" fill="#3E2723" fill-opacity=".15"/><path d="m70.254 66.464-.252-.146L58.37 86.667h.349l11.545-20.194-.009-.01Z" fill="#263238" fill-opacity=".15"/><path d="m37.566 45.59 17.349 17.346-5.412 3.125-11.937-20.47Z" fill="url(#d)"/><path d="m58.736 86.633 6.352-23.697 5.412 3.125-11.764 20.572Z" fill="url(#e)"/><path d="M60 47.879v6.348l23.757-6.348H60Z" fill="url(#f)"/><path d="M60 72.121c6.695 0 12.121-5.427 12.121-12.12 0-6.695-5.426-12.122-12.12-12.122-6.695 0-12.122 5.427-12.122 12.121 0 6.694 5.427 12.121 12.121 12.121Z" fill="#F1F1F1"/><path d="M60 69.697c5.355 0 9.697-4.341 9.697-9.697 0-5.355-4.342-9.697-9.697-9.697-5.356 0-9.697 4.342-9.697 9.697 0 5.356 4.341 9.697 9.697 9.697Z" fill="#4285F4"/><path d="M60 47.576c-6.694 0-12.121 5.427-12.121 12.12V60c0-6.694 5.427-12.121 12.121-12.121h26.667v-.303H60Z" fill="#3E2723" fill-opacity=".2"/><path d="M70.486 66.06C68.388 69.68 64.481 72.122 60 72.122c-4.485 0-8.391-2.442-10.488-6.06H49.5L33.334 38.327v.303l16.17 27.734h.012c2.097 3.618 6.003 6.06 10.488 6.06 4.482 0 8.387-2.44 10.485-6.06h.015v-.303h-.019Z" fill="#fff" fill-opacity=".1"/><path opacity=".1" d="M60.304 47.879c-.052 0-.1.006-.152.009 6.625.082 11.97 5.47 11.97 12.112 0 6.643-5.345 12.03-11.97 12.112.052 0 .1.01.152.01 6.694 0 12.121-5.428 12.121-12.122S66.998 47.88 60.304 47.88Z" fill="#3E2723"/><path d="M70.607 66.464a12.08 12.08 0 0 0 1.06-9.712c.288 1.036.455 2.124.455 3.25 0 2.207-.597 4.268-1.627 6.05l.006.012L58.719 86.67h.351l11.543-20.194-.006-.012Z" fill="#fff" fill-opacity=".2"/><path d="M60 33.636c14.677 0 26.582 11.858 26.664 26.515 0-.051.003-.1.003-.151 0-14.727-11.939-26.667-26.666-26.667-14.728 0-26.667 11.94-26.667 26.667 0 .051.003.1.003.151.082-14.657 11.988-26.515 26.664-26.515Z" fill="#fff" fill-opacity=".2"/><path d="M60 86.364c14.677 0 26.582-11.858 26.664-26.515 0 .051.003.1.003.151 0 14.728-11.939 26.667-26.666 26.667-14.728 0-26.667-11.94-26.667-26.667 0-.051.003-.1.003-.151.082 14.657 11.988 26.515 26.664 26.515Z" fill="#3E2723" fill-opacity=".15"/><path d="M60 86.667c14.728 0 26.667-11.94 26.667-26.667 0-14.728-11.939-26.667-26.666-26.667-14.728 0-26.667 11.94-26.667 26.667 0 14.728 11.939 26.667 26.667 26.667Z" fill="url(#g)"/></g><defs><radialGradient id="d" cx="0" cy="0" r="1" gradientUnits="userSpaceOnUse" gradientTransform="translate(37.538 45.612) scale(23.6497)"><stop stop-color="#3E2723" stop-opacity=".2"/><stop offset="1" stop-color="#3E2723" stop-opacity="0"/></radialGradient><radialGradient id="e" cx="0" cy="0" r="1" gradientUnits="userSpaceOnUse" gradientTransform="translate(59.953 60.042) scale(26.6273)"><stop stop-color="#263238" stop-opacity=".2"/><stop offset="1" stop-color="#263238" stop-opacity="0"/></radialGradient><radialGradient id="f" cx="0" cy="0" r="1" gradientUnits="userSpaceOnUse" gradientTransform="translate(58.841 47.863) scale(25.4782)"><stop stop-color="#3E2723" stop-opacity=".2"/><stop offset="1" stop-color="#3E2723" stop-opacity="0"/></radialGradient><radialGradient id="g" cx="0" cy="0" r="1" gradientUnits="userSpaceOnUse" gradientTransform="translate(41.3 40.61) scale(53.5593)"><stop stop-color="#fff" stop-opacity=".1"/><stop offset="1" stop-color="#fff" stop-opacity="0"/></radialGradient><linearGradient id="b" x1="64.507" y1="80.756" x2="46.83" y2="70.403" gradientUnits="userSpaceOnUse"><stop stop-color="#055524" stop-opacity=".4"/><stop offset=".33" stop-color="#055524" stop-opacity="0"/></linearGradient><linearGradient id="c" x1="67.836" y1="46.001" x2="72.288" y2="65.494" gradientUnits="userSpaceOnUse"><stop stop-color="#EA6100" stop-opacity=".3"/><stop offset=".66" stop-color="#EA6100" stop-opacity="0"/></linearGradient></defs></svg>