<svg width="120" height="120" fill="none" xmlns="http://www.w3.org/2000/svg"><path d="M0 60C0 26.863 26.863 0 60 0s60 26.863 60 60-26.863 60-60 60S0 93.137 0 60Z" fill="#F1F3F4"/><path d="m40 76.875 6.781-43.312a1.226 1.226 0 0 1 1.438-1.032c.375.063.718.313.906.657l7 13.062 2.781-5.312c.313-.625 1.063-.844 1.688-.532.218.125.406.313.531.532L80 76.875H40Z" fill="#FFA000"/><path d="M63.406 60 56.125 46.22 40 76.875 63.406 60Z" fill="#F57C00"/><path d="m80 76.875-5.188-32.094a1.264 1.264 0 0 0-1.437-1.03c-.25.03-.5.155-.688.343L40 76.875l18.094 10.156a3.8 3.8 0 0 0 3.656 0L80 76.875Z" fill="#FFCA28"/><path d="M74.844 44.813a1.264 1.264 0 0 0-1.438-1.032c-.25.032-.5.157-.687.344l-6.5 6.5-5.094-9.719c-.313-.625-1.063-.843-1.688-.531a1.444 1.444 0 0 0-.53.531l-2.782 5.313-7-13.063c-.313-.593-1.094-.843-1.688-.5a1.299 1.299 0 0 0-.656.907L40 76.874h-.031l.031.031.188.094 26.03-26.063 6.5-6.5c.5-.5 1.282-.5 1.782 0 .188.188.313.407.344.688l5.125 31.781.062-.031-5.187-32.063Zm-34.781 32 6.718-42.938a1.225 1.225 0 0 1 1.438-1.031c.375.062.718.312.906.656l7 13.063 2.781-5.313c.313-.625 1.063-.844 1.688-.531.218.125.406.312.531.531l5 9.5-26.063 26.063Z" fill="#fff" fill-opacity=".2"/><path opacity=".2" d="M61.75 86.719a3.8 3.8 0 0 1-3.656 0L40.03 76.594l-.031.281 18.094 10.156a3.8 3.8 0 0 0 3.656 0L80 76.875l-.031-.281L61.75 86.719Z" fill="#A52714"/><path d="M74.844 44.813a1.264 1.264 0 0 0-1.438-1.032c-.25.032-.5.157-.687.344l-6.5 6.5-5.094-9.719c-.313-.625-1.063-.843-1.688-.53a1.445 1.445 0 0 0-.53.53l-2.782 5.313-7-13.063c-.313-.593-1.094-.843-1.688-.5a1.299 1.299 0 0 0-.656.907L40 76.875l18.094 10.156a3.8 3.8 0 0 0 3.656 0L80 76.875l-5.156-32.062Z" fill="url(#a)"/><defs><linearGradient id="a" x1="38.923" y1="42.179" x2="80.7" y2="83.956" gradientUnits="userSpaceOnUse"><stop stop-color="#fff" stop-opacity=".1"/><stop offset="1" stop-color="#fff" stop-opacity="0"/></linearGradient></defs></svg>