<svg width="120" height="120" viewBox="0 0 120 120" fill="none" xmlns="http://www.w3.org/2000/svg">
<path d="M0 60C0 26.8629 26.8629 0 60 0C93.1371 0 120 26.8629 120 60C120 93.1371 93.1371 120 60 120C26.8629 120 0 93.1371 0 60Z" fill="#F1F3F4"/>
<path d="M83.7499 52.5003C85.8208 52.5003 87.4997 50.8214 87.4997 48.7504C87.4997 46.6794 85.8208 45.0006 83.7499 45.0006C81.6789 45.0006 80 46.6794 80 48.7504C80 50.8214 81.6789 52.5003 83.7499 52.5003Z" fill="#34A853"/>
<path d="M72.4997 65.0002C76.6417 65.0002 79.9994 61.6425 79.9994 57.5005C79.9994 53.3585 76.6417 50.0008 72.4997 50.0008C68.3577 50.0008 65 53.3585 65 57.5005C65 61.6425 68.3577 65.0002 72.4997 65.0002Z" fill="#EA4335"/>
<path d="M72.5001 85.001C77.3326 85.001 81.2501 81.0835 81.2501 76.2509C81.2501 71.4184 77.3326 67.5009 72.5001 67.5009C67.6675 67.5009 63.75 71.4184 63.75 76.2509C63.75 81.0835 67.6675 85.001 72.5001 85.001Z" fill="#FBBC05"/>
<path d="M47.5006 65.0014C55.7852 65.0014 62.5012 58.2854 62.5012 50.0008C62.5012 41.7162 55.7852 35.0002 47.5006 35.0002C39.216 35.0002 32.5 41.7162 32.5 50.0008C32.5 58.2854 39.216 65.0014 47.5006 65.0014Z" fill="#4285F4"/>
</svg>
