<svg width="120" height="120" fill="none" xmlns="http://www.w3.org/2000/svg"><path d="M0 60C0 26.863 26.863 0 60 0s60 26.863 60 60-26.863 60-60 60S0 93.137 0 60Z" fill="#F1F3F4"/><path d="M64.495 34.23a19.504 19.504 0 0 0-5.867-.9c-5.966 0-11.305 2.691-14.876 6.932l9.174 7.713 11.57-13.745Z" fill="#1A73E8"/><path d="M43.752 40.262a19.353 19.353 0 0 0-4.549 12.481c0 3.648.725 6.614 1.923 9.262l11.8-14.03-9.174-7.713Z" fill="#EA4335"/><path d="M58.629 45.327a7.431 7.431 0 0 1 5.669 12.229L75.856 43.81a19.43 19.43 0 0 0-11.371-9.57L52.938 47.986a7.405 7.405 0 0 1 5.69-2.659Z" fill="#4285F4"/><path d="M58.629 60.181a7.432 7.432 0 0 1-7.427-7.427 7.361 7.361 0 0 1 1.736-4.768l-11.811 14.03c2.021 4.472 5.372 8.065 8.822 12.591L64.3 57.556a7.418 7.418 0 0 1-5.67 2.626Z" fill="#FBBC04"/><path d="M64.013 79.254c6.482-10.13 14.03-14.733 14.03-26.51 0-3.23-.79-6.274-2.186-8.955L49.96 74.607c1.099 1.44 2.208 2.966 3.285 4.659C57.179 85.352 56.092 89 58.63 89c2.537 0 1.45-3.659 5.383-9.746Z" fill="#34A853"/></svg>