<svg width="120" height="120" fill="none" xmlns="http://www.w3.org/2000/svg"><path d="M0 60C0 26.863 26.863 0 60 0s60 26.863 60 60-26.863 60-60 60S0 93.137 0 60Z" fill="#F1F3F4"/><g clip-path="url(#a)"><path d="M67.91 48.473h1.818l5.182-5.182.254-2.2a23.29 23.29 0 0 0-37.89 11.364 2.818 2.818 0 0 1 1.818-.11l10.363-1.708s.528-.873.8-.819a12.927 12.927 0 0 1 17.691-1.345h-.036Z" fill="#EA4335"/><path d="M82.29 52.455a23.345 23.345 0 0 0-7.036-11.346l-7.273 7.273a12.928 12.928 0 0 1 4.746 10.255v1.29a6.472 6.472 0 1 1 0 12.946H59.78l-1.29 1.31v7.763l1.29 1.29h12.946a16.836 16.836 0 0 0 9.563-30.781Z" fill="#4285F4"/><path d="M46.818 83.164h12.945V72.8H46.818a6.436 6.436 0 0 1-2.673-.582l-1.818.564-5.218 5.182-.455 1.818a16.744 16.744 0 0 0 10.164 3.382Z" fill="#34A853"/><path d="M46.818 49.546a16.837 16.837 0 0 0-10.164 30.182l7.51-7.51a6.473 6.473 0 1 1 8.563-8.563l7.509-7.51a16.819 16.819 0 0 0-13.418-6.6Z" fill="#FBBC05"/></g><defs><clipPath id="a"><path fill="#fff" transform="translate(30 35)" d="M0 0h60v49.091H0z"/></clipPath></defs></svg>