<svg width="120" height="120" fill="none" xmlns="http://www.w3.org/2000/svg"><path d="M0 60C0 26.863 26.863 0 60 0s60 26.863 60 60-26.863 60-60 60S0 93.137 0 60Z" fill="#F1F3F4"/><g clip-path="url(#a)"><mask id="b" style="mask-type:alpha" maskUnits="userSpaceOnUse" x="34" y="31" width="53" height="58"><path fill-rule="evenodd" clip-rule="evenodd" d="M59.268 31 34.622 45.083l-.034 12.772 14.832-8.57v33.713l9.848 5.72V31Zm2.213 0 24.646 14.083.035 12.772-14.833-8.57v6.449l7.394 4.224.041 11.105-7.435-4.3v16.235l-9.847 5.72V31Z" fill="#fff"/></mask><g mask="url(#b)"><path d="M94 28H27v64h67V28Z" fill="url(#c)"/></g></g><defs><linearGradient id="c" x1="27" y1="60" x2="94" y2="60" gradientUnits="userSpaceOnUse"><stop stop-color="#FF6F00"/><stop offset="1" stop-color="#FFA800"/></linearGradient><clipPath id="a"><path fill="#fff" transform="translate(30 30)" d="M0 0h60v60H0z"/></clipPath></defs></svg>